<?xml version="1.0" encoding="utf-8"?>
<!-- Generator: Adobe Illustrator 24.0.2, SVG Export Plug-In . SVG Version: 6.00 Build 0)  -->
<svg version="1.1" id="Capa_1" xmlns="http://www.w3.org/2000/svg" xmlns:xlink="http://www.w3.org/1999/xlink" x="0px" y="0px"
	 viewBox="0 0 31.9 32" style="enable-background:new 0 0 31.9 32;" xml:space="preserve">
<style type="text/css">
	.st0{display:none;fill:url(#SVGID_1_);}
	.st1{display:none;fill:url(#SVGID_2_);}
</style>
<linearGradient id="SVGID_1_" gradientUnits="userSpaceOnUse" x1="-101.4778" y1="91.0208" x2="-100.8931" y2="90.3132" gradientTransform="matrix(31.8754 0 0 -28.4068 3241.9241 2585.7402)">
	<stop  offset="0" style="stop-color:#41D1FF"/>
	<stop  offset="1" style="stop-color:#BD34FE"/>
</linearGradient>
<path class="st0" d="M31.8,4.7l-15,26.8c-0.3,0.6-1.1,0.6-1.4,0L0.1,4.7C-0.2,4.1,0.3,3.4,1,3.5l15,2.7c0.1,0,0.2,0,0.3,0l14.7-2.7
	C31.6,3.4,32.1,4.1,31.8,4.7z"/>
<linearGradient id="SVGID_2_" gradientUnits="userSpaceOnUse" x1="-97.3478" y1="90.7428" x2="-97.2785" y2="89.8749" gradientTransform="matrix(14.6164 0 0 -26.6459 1440.717 2418.4429)">
	<stop  offset="0" style="stop-color:#FFEA83"/>
	<stop  offset="8.333001e-02" style="stop-color:#FFDD35"/>
	<stop  offset="1" style="stop-color:#FFA800"/>
</linearGradient>
<path class="st1" d="M23.1,0L12,2.2c-0.2,0-0.3,0.2-0.3,0.4L11,14.1c0,0.2,0.2,0.4,0.4,0.4c0,0,0.1,0,0.1,0l3.1-0.7
	c0.3-0.1,0.5,0.2,0.5,0.5l-0.9,4.5c-0.1,0.3,0.2,0.6,0.5,0.5l1.9-0.6c0.3-0.1,0.6,0.2,0.5,0.5l-1.5,7.1c-0.1,0.4,0.5,0.7,0.7,0.3
	l0.2-0.3l9-18c0.2-0.3-0.1-0.6-0.4-0.6L22,8.2c-0.3,0.1-0.6-0.2-0.5-0.5l2.1-7.2C23.6,0.2,23.4-0.1,23.1,0L23.1,0z"/>
<image style="overflow:visible;" width="326" height="336" xlink:href="../../../../../../adolfo/hotel perritos/logo.png"  transform="matrix(9.884193e-02 0 0 9.884193e-02 -0.7062 -0.6054)">
</image>
</svg>
